<?xml version="1.0" encoding="UTF-8"?><svg id="Lag_1" xmlns="http://www.w3.org/2000/svg" width="1366" height="768" viewBox="0 0 1366 768"><path d="M399.85,204.18c-13.13-19.05-.95-42.51-22.66-60.36-17.54-14.43-47.94-17.56-64.19-3.77-9.81,8.32-11.71,20.48-13.52,45.27-4.58,62.43-6.86,93.64,0,107.52,16.14,32.62,59.54,40.43,145.69,54.71,132.81,22.01,195.55,4.77,232.23-11.32,25.87-11.35,42.33-23.69,47.2-41.5,6.86-25.1-11.11-54.32-28.32-69.8-77.89-70.05-257.24,36.13-296.42-20.75Z" style="fill:#fcee7c; stroke:#000; stroke-miterlimit:10; stroke-width:4px;"/><path d="M589.72,281.13h64.97-64.97Z" style="fill:#fcee7c; stroke:#000; stroke-miterlimit:10; stroke-width:4px;"/><line x1="605.28" y1="236.55" x2="605.28" y2="252.62" style="fill:#fcee7c; stroke:#000; stroke-miterlimit:10; stroke-width:4px;"/><line x1="647.35" y1="236.55" x2="647.35" y2="252.62" style="fill:#fcee7c; stroke:#000; stroke-miterlimit:10; stroke-width:4px;"/><line x1="383.79" y1="252.62" x2="383.79" y2="274.87" style="fill:#fcee7c; stroke:#000; stroke-miterlimit:10; stroke-width:4px;"/><line x1="429.57" y1="252.62" x2="429.57" y2="274.87" style="fill:#fcee7c; stroke:#000; stroke-miterlimit:10; stroke-width:4px;"/><line x1="360.28" y1="252.62" x2="360.28" y2="274.87" style="fill:#fcee7c; stroke:#000; stroke-miterlimit:10; stroke-width:4px;"/><line x1="406.06" y1="252.62" x2="406.06" y2="274.87" style="fill:#fcee7c; stroke:#000; stroke-miterlimit:10; stroke-width:4px;"/><line x1="451.85" y1="252.62" x2="451.85" y2="274.87" style="fill:#fcee7c; stroke:#000; stroke-miterlimit:10; stroke-width:4px;"/><line x1="473.71" y1="252.62" x2="473.71" y2="274.87" style="fill:#fcee7c; stroke:#000; stroke-miterlimit:10; stroke-width:4px;"/><line x1="494.53" y1="252.62" x2="494.53" y2="274.87" style="fill:#fcee7c; stroke:#000; stroke-miterlimit:10; stroke-width:4px;"/><path d="M498,309.5l47.65,3.56c13.66,1.02,23.2,14.54,20.2,28.63l-16.86,79.23c-2,9.38-9.17,16.61-18.16,18.31l-30.48,5.76c-13.73,2.59-26.28-8.39-26.33-23.04l-.31-88.56c-.05-13.85,11.16-24.88,24.29-23.9Z" style="fill:#fcee7c; stroke:#000; stroke-miterlimit:10; stroke-width:4px;"/><path d="M413.85,316.62l-38.58,76.04c-2.99,5.9-10.32,8.03-15.95,4.64l-35.42-21.32c-5.73-3.45-7.24-11.13-3.26-16.55l45.79-62.29c2.78-3.78,7.57-5.47,12.07-4.26l28.21,7.58c6.95,1.87,10.41,9.71,7.13,16.17Z" style="fill:#de9dff; stroke:#000; stroke-miterlimit:10; stroke-width:4px;"/><ellipse cx="676.07" cy="265.62" rx="16.91" ry="9.05" style="fill:#de8f95; stroke-width:0px;"/><ellipse cx="576.85" cy="263.75" rx="16.91" ry="9.05" style="fill:#de8f95; stroke-width:0px;"/><path d="M306.97,179.36l31.71,17.03,54.88,9.65s-.1-52.8-33.28-67.56c-33.19-14.76-49.65,13.06-49.65,13.06" style="fill:#1dace2; stroke:#000; stroke-miterlimit:10; stroke-width:2px;"/><path d="M481.55,398.91l63.26,7.23-4.33,20.98-7.8,4.84-35.21,7.01s-22.34,5.94-15.92-40.05Z" style="fill:#63d1e6; stroke:#000; stroke-miterlimit:10; stroke-width:2px;"/></svg>