<?xml version="1.0" encoding="UTF-8"?><svg id="Lag_1" xmlns="http://www.w3.org/2000/svg" width="1366" height="768" viewBox="0 0 1366 768"><defs><style>.cls-1{fill:#f684ff;}.cls-1,.cls-2,.cls-3{stroke:#000;stroke-miterlimit:10;}.cls-1,.cls-3{stroke-width:.75px;}.cls-2{fill:#00a5ff;stroke-width:4px;}.cls-3{fill:#54d6ff;}</style></defs><rect class="cls-3" x="0" y="5.26" width="1366" height="768"/><ellipse class="cls-1" cx="679.61" cy="261.85" rx="504.1" ry="220.54"/><path class="cls-2" d="M389.15,223.19c6.57,0,13.35,1.1,20.34,3.29,3.48,1.1,6.74,2.37,9.78,3.82,3.04,1.45,5.87,3.07,8.47,4.87l-17,26.96c-7.09-3.84-13.63-5.76-19.61-5.76-4,0-7.21,1.17-9.65,3.52-2.43,2.27-3.65,5.34-3.65,9.22s1.02,6.57,3.08,8.31c2.05,1.74,5.27,2.61,9.65,2.61v-14.04h35.25v48.34l-17.37.94c-2.82.16-5.2.26-7.14.32-1.95.06-3.48.09-4.59.09-11.4,0-20.7-1.57-27.9-4.7-7.09-3.09-12.86-8.44-17.31-16.03-4.38-7.56-6.57-16.17-6.57-25.84,0-8.61,1.81-16.52,5.42-23.73,3.58-7.13,8.71-12.61,15.38-16.45,6.64-3.84,14.44-5.76,23.41-5.76Z"/><path class="cls-2" d="M500.43,314.23h-32.23v-5.29c-2.29,1.92-4.85,3.37-7.67,4.35-2.92,1.02-5.6,1.53-8.03,1.53-4.73,0-8.73-1.74-11.99-5.23-3.2-3.52-4.8-7.95-4.8-13.27,0-5.99,1.98-10.9,5.95-14.74,3.96-3.88,9.14-5.81,15.54-5.81,1.88,0,3.74.14,5.58.41,1.84.27,3.65.69,5.42,1.23,0-1.68-.3-3.18-.91-4.49-.61-1.31-1.47-2.41-2.58-3.29-1.11-.88-2.45-1.55-4.02-2-1.56-.45-3.32-.68-5.27-.68-3.09,0-6.08.45-8.97,1.35-1.39.43-2.84,1.01-4.35,1.73-1.51.73-3.1,1.58-4.77,2.56v-21.26c.59-.39,1.41-.87,2.45-1.44,1.04-.57,2.35-1.22,3.91-1.97,1.56-.74,3.22-1.42,4.98-2.03,1.75-.61,3.64-1.13,5.66-1.56,4-.94,8.64-1.41,13.92-1.41,11.26,0,19.43,2.72,24.51,8.16,5.11,5.4,7.67,13.22,7.67,23.43v39.7ZM463.2,300.54c1.95,0,3.62-.65,5.01-1.94v-9.87c-1.11-.39-2.04-.68-2.79-.85-.75-.18-1.59-.26-2.53-.26-1.91,0-3.46.56-4.64,1.67-1.18,1.12-1.77,2.61-1.77,4.49s.64,3.52,1.93,4.82,2.89,1.94,4.8,1.94Z"/><path class="cls-2" d="M583.97,255.14c3.72-4.31,7.35-7.42,10.9-9.34,3.55-1.92,7.56-2.88,12.05-2.88,6.85,0,12.22,2.37,16.11,7.11,3.93,4.78,5.89,11.34,5.89,19.68v44.52h-30.45v-42.52c0-2.35-.55-4.21-1.64-5.58-1.09-1.37-2.53-2.06-4.3-2.06-.9,0-1.9.22-3,.65-1.1.43-2.06.98-2.89,1.64v47.87h-30.45v-42.52c0-2.23-.51-4.06-1.54-5.49-1.03-1.43-2.49-2.14-4.41-2.14-.9,0-1.9.24-3,.71-1.1.47-2.06,1.04-2.89,1.7v47.75h-32.23v-70.72h32.23v8.87c5.18-6.3,11.63-9.46,19.35-9.46,4.69,0,8.67.99,11.94,2.97,3.27,1.98,6.05,5.06,8.34,9.25Z"/><path class="cls-2" d="M671.06,242.05c6.47,0,12.29,1.59,17.47,4.76,5.21,3.13,9.25,7.71,12.1,13.74,2.89,6.07,4.33,12.94,4.33,20.62v2.29h-32.96c.56,1.76,1.34,3.36,2.35,4.79,1.01,1.43,2.19,2.64,3.55,3.64,1.36,1,2.84,1.76,4.46,2.29,1.62.53,3.35.79,5.19.79,1.7,0,3.39-.18,5.06-.53,1.67-.35,3.24-.85,4.72-1.5,1.48-.65,2.86-1.45,4.15-2.41,1.29-.96,2.43-2.05,3.44-3.26v12.39c-3.72,5.44-8.1,9.41-13.14,11.89-5.04,2.49-10.81,3.73-17.31,3.73-3.62.04-7.03-.34-10.25-1.15-3.22-.8-6.18-1.97-8.89-3.49-2.71-1.53-5.14-3.4-7.27-5.61-2.14-2.21-3.95-4.7-5.42-7.46-1.48-2.76-2.6-5.79-3.36-9.07-.77-3.29-1.13-6.77-1.1-10.45,0-6.93,1.37-13.12,4.12-18.56,2.78-5.52,6.66-9.79,11.63-12.8,5.04-3.09,10.76-4.64,17.16-4.64ZM670.07,271.06h15.17c-.1-3.44-.86-6.18-2.27-8.19-1.41-2.02-3.28-3.02-5.61-3.02-2.09,0-3.83,1-5.21,3-1.39,1.92-2.09,4.41-2.09,7.46v.76Z"/><path class="cls-2" d="M782.75,242.05c5.01,0,9.62.91,13.84,2.73s7.86,4.36,10.9,7.61c3.04,3.25,5.41,7.13,7.12,11.63,1.7,4.5,2.55,9.42,2.55,14.74s-.84,10.16-2.53,14.62c-1.69,4.46-4.04,8.32-7.07,11.57-3.02,3.25-6.65,5.79-10.87,7.61-4.22,1.82-8.87,2.73-13.95,2.73-6.4,0-12.24-1.51-17.52-4.52-5.21-3.01-9.32-7.28-12.31-12.8-2.96-5.56-4.43-11.96-4.43-19.21s1.44-13.49,4.33-19.09c2.92-5.6,6.97-9.93,12.15-12.98,5.18-3.09,11.11-4.64,17.78-4.64ZM782.75,286.1c2.19,0,3.93-.72,5.21-2.17,1.29-1.45,1.93-3.41,1.93-5.87s-.65-4.43-1.96-5.9-3.05-2.2-5.24-2.2c-1.04,0-1.99.2-2.84.59-.85.39-1.58.95-2.19,1.67-.61.73-1.09,1.59-1.43,2.58-.35,1-.52,2.08-.52,3.26,0,2.39.65,4.33,1.96,5.81,1.3,1.49,3,2.23,5.08,2.23Z"/><path class="cls-2" d="M853.26,243.51l6.99,18.03,6.83-18.03h32.23l-27.22,70.72h-23.83l-27.22-70.66,32.23-.06Z"/><path class="cls-2" d="M935.86,242.05c6.47,0,12.29,1.59,17.47,4.76,5.21,3.13,9.25,7.71,12.1,13.74,2.89,6.07,4.33,12.94,4.33,20.62v2.29h-32.96c.56,1.76,1.34,3.36,2.35,4.79,1.01,1.43,2.19,2.64,3.55,3.64,1.36,1,2.84,1.76,4.46,2.29,1.62.53,3.35.79,5.19.79,1.7,0,3.39-.18,5.06-.53,1.67-.35,3.24-.85,4.72-1.5,1.48-.65,2.86-1.45,4.15-2.41,1.29-.96,2.43-2.05,3.44-3.26v12.39c-3.72,5.44-8.1,9.41-13.14,11.89-5.04,2.49-10.81,3.73-17.31,3.73-3.62.04-7.03-.34-10.25-1.15-3.22-.8-6.18-1.97-8.89-3.49-2.71-1.53-5.14-3.4-7.27-5.61-2.14-2.21-3.95-4.7-5.42-7.46-1.48-2.76-2.6-5.79-3.36-9.07-.77-3.29-1.13-6.77-1.1-10.45,0-6.93,1.37-13.12,4.12-18.56,2.78-5.52,6.66-9.79,11.63-12.8,5.04-3.09,10.76-4.64,17.16-4.64ZM934.87,271.06h15.17c-.1-3.44-.86-6.18-2.27-8.19-1.41-2.02-3.28-3.02-5.61-3.02-2.09,0-3.83,1-5.21,3-1.39,1.92-2.09,4.41-2.09,7.46v.76Z"/><path class="cls-2" d="M1038.9,259.96c0,5.21-1.41,9.4-4.22,12.57-2.78,3.17-6.36,4.76-10.74,4.76-4.97,0-9.32-2.15-13.04-6.46-1.67,1.64-2.89,3.85-3.65,6.61-.76,2.76-1.15,6.04-1.15,9.84v26.96h-32.23v-70.72h32.23v15.04h.21c1.98-5.13,4.47-9.02,7.46-11.66,2.99-2.64,6.38-3.96,10.17-3.96,4.28,0,7.84,1.61,10.69,4.82,2.85,3.17,4.28,7.24,4.28,12.22Z"/></svg>