<?xml version="1.0" encoding="UTF-8"?><svg id="Lag_1" xmlns="http://www.w3.org/2000/svg" width="1366" height="768" xmlns:xlink="http://www.w3.org/1999/xlink" viewBox="0 0 1366 768"><defs><style>.cls-1{fill:#ffd6ff;}.cls-1,.cls-2,.cls-3,.cls-4,.cls-5{stroke:#000;stroke-miterlimit:10;}.cls-1,.cls-3,.cls-5{stroke-width:3px;}.cls-2{stroke-width:5px;}.cls-2,.cls-6{fill:none;}.cls-7{clip-path:url(#clippath);}.cls-6,.cls-8{stroke-width:0px;}.cls-3{fill:#f0eadc;}.cls-8{fill:#54d6ff;}.cls-4{fill:#000;stroke-width:2px;}.cls-5{fill:#abd2f0;}</style><clipPath id="clippath"><rect class="cls-6" x="33" y="588.05" width="125.31" height="142.01"/></clipPath></defs><rect class="cls-8" x="-.12" y=".4" width="1366" height="768"/><path class="cls-2" d="M713.58,711.91c7.42,3.9,14.84,7.81,22.26,11.71,14.26,7.5,28.57,15.02,45.47,21.21,8.49,3.11,17.61,5.87,27.31,8.27,59.18,14.65,144.4,14.73,228.62-6.77,21.23-5.42,43.56-11.39,64.81-16.77,4.29-1.09,8.63-2.19,12.69-3.65,4.02-1.45,7.64-3.2,11.22-4.94,9.56-4.64,19.12-9.29,28.68-13.93,13.48-6.55,27.07-13.16,38.34-20.43,9-5.81,16.35-11.93,23.64-18.01,8.51-7.1,17.01-14.19,25.52-21.29,14.52-12.11,29.11-24.29,39.98-36.59,22.53-25.48,27.99-50.13,33.14-74.2,1.74-8.13,3.23-16.77-5.53-21.83,9.09-12.02,13.51-25.58,8.18-35.2-6.29,9.56-12.59,19.12-18.88,28.68-2.45,3.72-5.04,7.58-10.28,11.15-5.58,3.8-13.55,6.87-20.13,10.4-8.04,4.32-13.83,9.24-20.95,13.83-9.98,6.44-22.41,12.14-34.69,17.75-39.72,18.16-80.25,36.63-125.17,50.1-46.49,13.94-96.55,22.17-140.23,39.27-5.6,2.19-11.44,4.62-17.5,5.51-3.78.55-7.22.43-10.77.55-17.74.55-38.68,6.87-55.87,6.76-7.66-.05-13.96-1.39-21.33-1.74-11.05-.52-23.93,1.19-36.02,1.9-15.38.9-29.5.16-43.11-.92-17.29-1.38-33.96-3.31-49.88-5.78-3.87,2.75-.78,5.76,5.1,4.97-18.27-7-35.15-14.74-50.53-23.16-1.5,28.99,32.18,50.08,48.95,74.45-.66-1.44-2.41.16-3.07-1.29Z"/><ellipse class="cls-2" cx="666.78" cy="640.83" rx="40.84" ry="17.11" transform="translate(-133.61 177.54) rotate(-13.8)"/><ellipse class="cls-2" cx="1318.98" cy="480.9" rx="40.84" ry="17.11" transform="translate(-76.64 328.48) rotate(-13.8)"/><path class="cls-2" d="M739.3,659.05c-3.03,5.54-11.35,11.12-19.37,16.43-7.96,5.26-15.93,10.53-23.89,15.79.1-.89.2-1.77.3-2.66"/><path class="cls-2" d="M866.81,662.28c-11.1,7.22-21.33,14.62-31.55,22.01-8.83,6.38-17.65,12.76-26.48,19.14-4.27,3.09-8.57,6.2-11.78,9.39-3.78,3.76-6.07,7.63-11.17,11.25-8.34,5.92-22.64,10.07-30.85,16.01"/><path class="cls-2" d="M1044.33,623.08c-34.15,25.14-68.3,50.29-102.46,75.43-11.15,8.21-22.38,16.49-30.48,24.97-12.41,13-18.47,27.16-40.74,38.28"/><path class="cls-2" d="M1241.77,548.04c-28.49,25.1-53.24,50.51-73.9,75.86-7.2,8.84-13.93,17.7-22.59,26.53-13.28,13.53-30.88,26.76-47.6,40.02-25.66,20.35-49.44,40.93-71.2,61.62"/><path class="cls-2" d="M1256.08,537.49c15.36.23,30.08,1.17,43.92,2.8,5.72.68,11.6,1.6,13.74,4.14"/><path class="cls-2" d="M1130.94,596.39c8.99-2.87,19.32-3.24,24.5-.88,2.28,1.04,3.59,2.52,5.6,3.69,2.75,1.6,6.76,2.58,10.72,3.54,14.66,3.55,29.34,7.11,45.14,9.89,17.59,3.09,36.49,5.21,55.37,7.31"/><path class="cls-2" d="M961.29,644.46c22.75,1.75,46.04,3.61,62.03,9.91,7.77,3.06,13.59,7.11,21.47,10.12,7.51,2.87,16.75,4.75,26.08,6.52,37.95,7.18,78.31,12.7,120.65,16.48"/><path class="cls-2" d="M1039.04,745.97c-94.58-14.28-178.2-36.77-247.46-66.55-17.2-7.4-34.07-15.38-58.46-18.23-14.16,9.55-26.46,19.29-36.29,29.33-.13-.46-.26-.93-.39-1.39"/><path class="cls-2" d="M1105.96,605.79c-5.29,16.69-23.86,28.14-36.94,41.87-9.58,10.05-16.4,21.68-24.83,32.41-9.71,12.37-21.52,23.52-33.74,34.23-18.15,15.91-37.32,30.96-57.37,45.06-.75.53-1.83,1.08-2.54.63s.91-1.62.93-.83"/><path class="cls-2" d="M912.86,657.47c-.62,6.9-7.19,12.62-13.2,17.67-29.52,24.79-56.61,51.72-80.79,80.33"/><path class="cls-2" d="M780.93,663.55c-17.93,18.55-34.56,37.98-49.75,58.14"/><path class="cls-2" d="M1296.69,510.99c-3.53,18.86-15.87,36.23-27.92,52.97-7.71,10.71-15.43,21.42-23.95,31.71-5.91,7.14-12.2,14.06-18.49,20.98-3.72,4.09-7.44,8.19-11.32,12.17-31.75,32.6-74.67,58.48-96.49,96.14"/><path class="cls-2" d="M680.67,655.56c26.17,11.1,46.31,29.68,69.74,44.34,39.98,25.01,89.05,38.27,138.57,47.59,13.4,2.52,26.93,4.79,40.72,5.95,13.4,1.13,27.44,1.33,39.11,6.42"/><path class="cls-2" d="M839.1,662.31c2.41,2.65,6.46,3.73,10.29,4.69,50.14,12.54,100.42,24.79,150.69,37.03,14.91,3.63,29.85,7.27,45.25,9.59,11.45,1.73,23.1,2.73,34.75,3.72,13.44,1.15,26.89,2.3,40.33,3.45"/><path class="cls-2" d="M1041.72,624.49c61.42,15.16,124.47,26.54,188.57,34.04"/><path class="cls-2" d="M1183.38,574.68c37.19,6.04,74.64,11.24,112.33,15.61"/><path class="cls-2" d="M1228.41,553.47c13.78,5.2,29.05,7.42,44.17,9.61,10.85,1.57,21.69,3.14,32.54,4.71"/><path class="cls-2" d="M931.25,655.82c36.41,13.91,73.77,26.25,111.91,36.97,16.17,4.54,32.6,8.82,49.82,10.4,8.73.8,17.59.91,26.44,1.02,11.94.14,23.89.29,35.83.43.69,0,1.57-.09,1.84-.65s-1.16-.76-.96-.22"/><path class="cls-2" d="M1102.95,606.82c37.4,13.68,75.88,25.52,115.21,35.45,6.07,1.53,12.31,3.03,18.82,2.68,6.52-.35,13.47-2.9,17.21-7.76"/><path class="cls-1" d="M205.19,81.08c-16.84,2.83-31.97.08-37.99-6.22-6.86,5.02-17.05,9.15-28.76,11.12-16.99,2.86-32.4.39-39.88-5.59-7.17,5.07-17.17,9.12-28.58,11.04-24.2,4.07-45.55-2.96-47.7-15.7-2.14-12.75,15.74-26.38,39.93-30.45,1.83-.31,3.65-.55,5.44-.73-.18-.41-.3-.83-.37-1.26-1.62-9.61,21.39-21.5,51.4-26.55,30-5.05,55.63-1.35,57.25,8.27.07.39.09.79.07,1.19,30.72-2.49,53.38.54,54.69,8.33.56,3.33-2.85,7.11-9.27,10.95,10.25,1.55,17.48,5.74,18.49,11.69,1.63,9.7-13.91,20.41-34.72,23.91Z"/><path class="cls-1" d="M995.82,102.13c0,10.38-13.49,18.8-30.13,18.8-13.47,0-24.88-5.51-28.74-13.12-5.99,4.02-14.45,6.53-23.82,6.53-13.59,0-25.27-5.28-30.3-12.81-6.24,4.04-14.54,6.49-23.66,6.49-19.36,0-35.04-11.06-35.04-24.7s15.68-24.7,35.04-24.7c1.46,0,2.9.06,4.32.19-.08-.45-.12-.91-.12-1.37,0-10.29,19.45-18.63,43.45-18.63s43.45,8.34,43.45,18.63c0,.42-.03.84-.1,1.25,24.23,2.79,41.45,9.92,41.45,18.26,0,3.57-3.15,6.91-8.64,9.78,7.77,3.4,12.84,9.03,12.84,15.4Z"/><path class="cls-1" d="M485.21,86.14c-.67,9.35-17.22,15.79-36.98,14.38-15.99-1.13-29.18-7.06-33.28-14.23-7.38,3.11-17.58,4.65-28.7,3.86-16.13-1.14-29.64-6.88-35.14-14.08-7.66,3.09-17.69,4.61-28.53,3.84-22.97-1.64-40.89-12.92-40.02-25.2.88-12.28,20.21-20.91,43.19-19.28,1.73.12,3.44.3,5.11.53-.06-.42-.08-.83-.05-1.24.66-9.26,24.29-15.13,52.78-13.11,28.49,2.03,51.05,11.18,50.4,20.45-.03.38-.09.76-.2,1.13,28.58,4.55,48.57,12.41,48.04,19.92-.23,3.21-4.17,5.95-10.87,8.08,9,3.72,14.65,9.21,14.25,14.95Z"/><path class="cls-1" d="M1297.76,119.09c-.7,9.81-18.33,16.56-39.38,15.06-17.03-1.21-31.08-7.45-35.45-14.99-7.86,3.27-18.72,4.87-30.57,4.03-17.2-1.22-31.61-7.26-37.45-14.83-8.16,3.25-18.83,4.83-30.37,4.01-24.48-1.74-43.57-13.6-42.66-26.49.92-12.89,21.5-21.93,45.98-20.19,1.85.13,3.67.32,5.45.56-.07-.43-.09-.87-.06-1.3.69-9.72,25.86-15.86,56.2-13.7,30.35,2.16,54.39,11.79,53.7,21.52-.03.4-.1.8-.21,1.18,30.44,4.8,51.75,13.09,51.19,20.97-.24,3.36-4.44,6.24-11.58,8.46,9.59,3.91,15.63,9.69,15.21,15.71Z"/><path class="cls-1" d="M712.25,91.91c-13.25,2.23-25.49-1.89-30.68-9.54-5.15,5.38-13.02,9.51-22.24,11.07-13.38,2.25-25.84-1.57-32.15-8.95-5.39,5.43-13.12,9.49-22.1,11-19.04,3.2-36.5-6.24-39-21.1-2.5-14.86,10.91-29.5,29.95-32.71,1.44-.24,2.87-.41,4.29-.51-.16-.48-.29-.97-.37-1.47-1.89-11.2,15.72-23.51,39.33-27.49,23.61-3.97,44.28,1.9,46.17,13.11.08.46.12.92.13,1.39,24.34-.99,42.59,3.91,44.12,13,.66,3.88-1.82,8.04-6.7,12.08,8.26,2.42,14.29,7.72,15.46,14.65,1.9,11.31-9.83,22.72-26.21,25.47Z"/><rect class="cls-3" x=".89" y="468.64" width="620.12" height="299.87"/><rect class="cls-5" x=".15" y="468.64" width="620.12" height="84.29"/><rect class="cls-5" x="463.34" y="587.3" width="131.67" height="142.4"/><rect class="cls-5" x="28.05" y="587.3" width="130.28" height="142.4"/><rect class="cls-5" x="186.44" y="587.3" width="247.54" height="142.4"/><path class="cls-4" d="M90.78,512.91v9.53h5.91c.41,0,.71.08.88.23s.27.35.27.6c0,.24-.09.44-.27.59s-.47.24-.88.24h-9.95c-.41,0-.71-.08-.88-.24s-.27-.36-.27-.59c0-.25.09-.45.27-.6s.47-.23.88-.23h2.32v-19.86h-2.32c-.41,0-.71-.08-.88-.23s-.27-.35-.27-.6.1-.46.31-.63c.15-.13.43-.2.84-.2h18.99v5.73c0,.4-.08.68-.25.85s-.37.26-.62.26c-.26,0-.47-.09-.64-.26s-.25-.46-.25-.85v-4.06h-13.2v8.66h6.18v-1.88c0-.4.08-.68.25-.85s.38-.26.64-.26c.25,0,.45.09.62.26s.25.46.25.85v5.43c0,.4-.08.68-.25.85s-.37.26-.62.26c-.26,0-.47-.09-.64-.26s-.25-.46-.25-.85v-1.88h-6.18Z"/><path class="cls-4" d="M117.17,502.59v19.86h11.45v-6.62c0-.4.08-.68.25-.85s.38-.26.64-.26c.25,0,.45.08.62.25s.25.45.25.86v8.28h-19.05c-.41,0-.71-.08-.88-.24s-.27-.36-.27-.59c0-.25.09-.45.27-.6s.47-.23.88-.23h4.11v-19.86h-4.11c-.41,0-.71-.08-.88-.23s-.27-.35-.27-.6.09-.45.27-.6.47-.23.88-.23h9.95c.41,0,.71.08.88.23s.27.35.27.6-.09.45-.27.6-.47.23-.88.23h-4.11Z"/><path class="cls-4" d="M146.3,513.65v8.8h4.47c.41,0,.71.08.88.23s.27.35.27.6c0,.24-.09.44-.27.59s-.47.24-.88.24h-10.69c-.41,0-.71-.08-.88-.24s-.27-.36-.27-.59c0-.25.09-.45.26-.6s.47-.23.89-.23h4.47v-8.8l-7.57-11.06h-1.03c-.41,0-.71-.08-.88-.23s-.27-.35-.27-.6.09-.45.27-.6.47-.23.88-.23h4.74c.41,0,.71.08.88.23s.27.35.27.6-.09.45-.27.6-.47.23-.88.23h-1.7l6.45,9.37,6.3-9.37h-1.68c-.42,0-.73-.08-.9-.23s-.27-.35-.27-.6.09-.45.27-.6.48-.23.9-.23h4.72c.41,0,.71.08.88.23s.27.35.27.6-.09.45-.27.6-.47.23-.88.23h-1.03l-7.45,11.06Z"/><path class="cls-4" d="M171.9,524.11h-2.4l-8.68-21.52h-1.33c-.32,0-.54-.03-.68-.09s-.25-.16-.34-.3-.13-.29-.13-.45.04-.31.13-.45.2-.24.34-.3.36-.09.68-.09h6.42c.33,0,.56.03.69.09s.24.16.33.3.13.29.13.45-.05.31-.14.45-.21.24-.34.3-.35.09-.67.09h-3.3l8.01,19.86h.12l7.9-19.86h-3.28c-.33,0-.56-.03-.7-.09s-.25-.16-.34-.3-.13-.29-.13-.45.05-.31.14-.45.21-.24.34-.3.36-.09.69-.09h6.4c.33,0,.56.03.7.09s.25.16.34.3.13.29.13.45-.05.31-.14.45-.21.24-.34.3-.36.09-.69.09h-1.31l-8.54,21.52Z"/><path class="cls-4" d="M190.22,512.91v9.53h13.26v-4.92c0-.4.08-.68.24-.85s.37-.26.63-.26.47.09.63.26.24.46.24.85v6.58h-19.03c-.41,0-.71-.08-.88-.24s-.27-.36-.27-.59c0-.25.09-.45.27-.6s.47-.23.88-.23h2.32v-19.86h-2.32c-.41,0-.71-.08-.88-.23s-.27-.35-.27-.6.09-.45.27-.6.47-.23.88-.23h18.12v5.73c0,.4-.08.68-.24.85s-.37.26-.63.26-.47-.09-.63-.26-.24-.46-.24-.85v-4.06h-12.36v8.66h6.18v-1.88c0-.4.08-.68.25-.85s.38-.26.64-.26c.25,0,.45.09.62.26s.25.46.25.85v5.43c0,.4-.08.68-.25.85s-.37.26-.62.26c-.26,0-.47-.09-.64-.26s-.25-.46-.25-.85v-1.88h-6.18Z"/><path class="cls-4" d="M215.45,513.77v8.68h3.18c.42,0,.73.08.9.23s.27.35.27.6c0,.24-.09.44-.27.59s-.48.24-.9.24h-7.23c-.41,0-.71-.08-.88-.24s-.27-.36-.27-.59c0-.25.09-.45.27-.6s.47-.23.88-.23h2.32v-19.86h-2.32c-.41,0-.71-.08-.88-.23s-.27-.35-.27-.6.09-.45.27-.6.47-.23.88-.23h10.43c2.15,0,3.96.66,5.43,1.97s2.21,2.8,2.21,4.45c0,1.19-.45,2.31-1.36,3.36s-2.43,1.93-4.57,2.63c1.23.82,2.29,1.74,3.16,2.77s2.28,3.14,4.21,6.34h1.31c.41,0,.71.08.88.23s.27.35.27.6c0,.24-.09.44-.27.59s-.47.24-.88.24h-2.3c-2.13-3.69-3.79-6.16-4.96-7.41s-2.51-2.23-4.03-2.93h-5.48ZM215.45,512.1h4.7c1.51,0,2.87-.26,4.09-.79s2.11-1.15,2.67-1.86.83-1.44.83-2.18c0-1.11-.58-2.17-1.73-3.17s-2.56-1.51-4.22-1.51h-6.34v9.51Z"/><path class="cls-4" d="M242.13,512.91v9.53h5.91c.41,0,.71.08.88.23s.27.35.27.6c0,.24-.09.44-.27.59s-.47.24-.88.24h-9.95c-.41,0-.71-.08-.88-.24s-.27-.36-.27-.59c0-.25.09-.45.27-.6s.47-.23.88-.23h2.32v-19.86h-2.32c-.41,0-.71-.08-.88-.23s-.27-.35-.27-.6.1-.46.31-.63c.15-.13.43-.2.84-.2h18.99v5.73c0,.4-.08.68-.25.85s-.37.26-.62.26c-.26,0-.47-.09-.64-.26s-.25-.46-.25-.85v-4.06h-13.2v8.66h6.18v-1.88c0-.4.08-.68.25-.85s.38-.26.64-.26c.25,0,.45.09.62.26s.25.46.25.85v5.43c0,.4-.08.68-.25.85s-.37.26-.62.26c-.26,0-.47-.09-.64-.26s-.25-.46-.25-.85v-1.88h-6.18Z"/><path class="cls-4" d="M272.39,502.59v19.86h5.91c.41,0,.71.08.88.23s.27.35.27.6c0,.24-.09.44-.27.59s-.47.24-.88.24h-13.55c-.41,0-.71-.08-.88-.24s-.27-.36-.27-.59c0-.25.09-.45.27-.6s.47-.23.88-.23h5.91v-19.86h-5.91c-.41,0-.71-.08-.88-.23s-.27-.35-.27-.6.09-.45.27-.6.47-.23.88-.23h13.55c.41,0,.71.08.88.23s.27.35.27.6-.09.45-.27.6-.47.23-.88.23h-5.91Z"/><path class="cls-4" d="M302.91,502.59v-.55c0-.4.08-.68.24-.85s.37-.26.63-.26.47.09.63.26.24.46.24.85v4.24c0,.4-.08.68-.24.85s-.37.26-.63.26c-.25,0-.45-.08-.61-.24s-.24-.42-.26-.77c-.07-1.11-.66-2.11-1.78-2.99s-2.58-1.33-4.38-1.33c-1.9,0-3.41.47-4.54,1.42s-1.68,2.06-1.68,3.34c0,.66.16,1.26.47,1.8s.73.98,1.25,1.32,1.11.61,1.77.81,1.68.42,3.08.64c2.34.37,3.95.75,4.84,1.13,1.19.52,2.09,1.23,2.7,2.14s.91,1.99.91,3.23c0,1.9-.79,3.52-2.36,4.87s-3.69,2.01-6.36,2.01c-3,0-5.39-.9-7.18-2.72v.95c0,.4-.08.68-.24.85s-.37.26-.63.26c-.25,0-.45-.09-.62-.26s-.25-.46-.25-.85v-4.6c0-.41.08-.7.24-.87s.37-.26.63-.26c.25,0,.45.08.61.24s.24.42.26.77c.07,1.22.74,2.32,2.02,3.32s3,1.5,5.16,1.5,3.87-.52,5.12-1.57,1.88-2.28,1.88-3.71c0-.87-.24-1.65-.72-2.33s-1.19-1.22-2.13-1.62c-.66-.28-2.02-.59-4.11-.93-2.86-.46-4.92-1.17-6.18-2.12s-1.89-2.31-1.89-4.06.72-3.24,2.17-4.5,3.35-1.88,5.72-1.88,4.48.73,6.22,2.2Z"/><path class="cls-4" d="M316.38,515.04v7.41h3.18c.42,0,.73.08.9.23s.27.35.27.6c0,.24-.09.44-.27.59s-.48.24-.9.24h-7.23c-.41,0-.71-.08-.88-.24s-.27-.36-.27-.59c0-.25.09-.45.27-.6s.47-.23.88-.23h2.32v-19.86h-2.32c-.41,0-.71-.08-.88-.23s-.27-.35-.27-.6.09-.45.27-.6.47-.23.88-.23h7.23c.42,0,.73.08.9.23s.27.35.27.6-.09.45-.27.6-.48.23-.9.23h-3.18v10.25l11.9-10.25h-1.89c-.42,0-.73-.08-.9-.23s-.27-.35-.27-.6.09-.45.27-.6.48-.23.9-.23h5.07c.41,0,.71.08.88.23s.27.35.27.6-.09.45-.27.6-.47.23-.88.23h-.7l-9.48,8.19c1.41.55,2.58,1.25,3.51,2.08s1.83,2.01,2.69,3.55c.49.86,1.4,2.87,2.71,6.04h2.16c.42,0,.73.08.9.23s.27.35.27.6c0,.24-.09.44-.27.59s-.48.24-.9.24h-3.33c-1.81-4.77-3.33-7.84-4.56-9.21s-2.77-2.33-4.62-2.88l-3.47,3.01Z"/><path class="cls-4" d="M341.58,512.91v9.53h13.26v-4.92c0-.4.08-.68.24-.85s.37-.26.63-.26.47.09.63.26.24.46.24.85v6.58h-19.03c-.41,0-.71-.08-.88-.24s-.27-.36-.27-.59c0-.25.09-.45.27-.6s.47-.23.88-.23h2.32v-19.86h-2.32c-.41,0-.71-.08-.88-.23s-.27-.35-.27-.6.09-.45.27-.6.47-.23.88-.23h18.12v5.73c0,.4-.08.68-.24.85s-.37.26-.63.26-.47-.09-.63-.26-.24-.46-.24-.85v-4.06h-12.36v8.66h6.18v-1.88c0-.4.08-.68.25-.85s.38-.26.64-.26c.25,0,.45.09.62.26s.25.46.25.85v5.43c0,.4-.08.68-.25.85s-.37.26-.62.26c-.26,0-.47-.09-.64-.26s-.25-.46-.25-.85v-1.88h-6.18Z"/><path class="cls-4" d="M381.79,515.51v7.13c-1.31.7-2.62,1.23-3.93,1.59s-2.61.54-3.91.54c-1.85,0-3.47-.26-4.87-.79s-2.59-1.27-3.56-2.22-1.73-2.01-2.27-3.19-.81-2.67-.81-4.48v-3.05c0-1.82.47-3.6,1.41-5.32s2.22-3.04,3.85-3.95,3.4-1.37,5.32-1.37c2.78,0,5.12.73,7.04,2.2,0-.65.02-1.04.07-1.17s.15-.25.3-.35.32-.15.51-.15c.25,0,.45.09.62.26s.25.46.25.85v3.77c0,.41-.08.7-.25.86s-.37.25-.62.25c-.23,0-.43-.08-.58-.23s-.24-.42-.26-.8c-.08-1.12-.84-2.04-2.27-2.75s-2.99-1.07-4.67-1.07c-1.59,0-3.02.33-4.3,1s-2.47,1.94-3.58,3.82c-.74,1.23-1.11,2.62-1.11,4.18v3.03c0,2.76.88,4.95,2.63,6.58s4.17,2.44,7.25,2.44c1.04,0,2-.11,2.89-.32s1.93-.58,3.12-1.11v-6.16h-5.93c-.41,0-.71-.08-.88-.23s-.27-.35-.27-.6.09-.46.27-.61.47-.24.88-.24l8.29.02c.41,0,.71.08.88.23s.27.35.27.6c0,.17-.05.33-.16.48s-.23.24-.37.29-.55.07-1.23.07Z"/><path class="cls-4" d="M392.03,513.77v8.68h3.18c.42,0,.73.08.9.23s.27.35.27.6c0,.24-.09.44-.27.59s-.48.24-.9.24h-7.23c-.41,0-.71-.08-.88-.24s-.27-.36-.27-.59c0-.25.09-.45.27-.6s.47-.23.88-.23h2.32v-19.86h-2.32c-.41,0-.71-.08-.88-.23s-.27-.35-.27-.6.09-.45.27-.6.47-.23.88-.23h10.43c2.15,0,3.96.66,5.43,1.97s2.21,2.8,2.21,4.45c0,1.19-.45,2.31-1.36,3.36s-2.43,1.93-4.57,2.63c1.23.82,2.29,1.74,3.16,2.77s2.28,3.14,4.21,6.34h1.31c.41,0,.71.08.88.23s.27.35.27.6c0,.24-.09.44-.27.59s-.47.24-.88.24h-2.3c-2.13-3.69-3.79-6.16-4.96-7.41s-2.51-2.23-4.03-2.93h-5.48ZM392.03,512.1h4.7c1.51,0,2.87-.26,4.09-.79s2.11-1.15,2.67-1.86.83-1.44.83-2.18c0-1.11-.58-2.17-1.73-3.17s-2.56-1.51-4.22-1.51h-6.34v9.51Z"/><path class="cls-4" d="M423.75,502.59v19.86h5.91c.41,0,.71.08.88.23s.27.35.27.6c0,.24-.09.44-.27.59s-.47.24-.88.24h-13.55c-.41,0-.71-.08-.88-.24s-.27-.36-.27-.59c0-.25.09-.45.27-.6s.47-.23.88-.23h5.91v-19.86h-5.91c-.41,0-.71-.08-.88-.23s-.27-.35-.27-.6.09-.45.27-.6.47-.23.88-.23h13.55c.41,0,.71.08.88.23s.27.35.27.6-.09.45-.27.6-.47.23-.88.23h-5.91Z"/><path class="cls-4" d="M445.11,502.59v19.86h11.45v-6.62c0-.4.08-.68.25-.85s.38-.26.64-.26c.25,0,.45.08.62.25s.25.45.25.86v8.28h-19.05c-.41,0-.71-.08-.88-.24s-.27-.36-.27-.59c0-.25.09-.45.27-.6s.47-.23.88-.23h4.11v-19.86h-4.11c-.41,0-.71-.08-.88-.23s-.27-.35-.27-.6.09-.45.27-.6.47-.23.88-.23h9.95c.41,0,.71.08.88.23s.27.35.27.6-.09.45-.27.6-.47.23-.88.23h-4.11Z"/><path class="cls-4" d="M470.34,502.59v19.86h11.45v-6.62c0-.4.08-.68.25-.85s.38-.26.64-.26c.25,0,.45.08.62.25s.25.45.25.86v8.28h-19.05c-.41,0-.71-.08-.88-.24s-.27-.36-.27-.59c0-.25.09-.45.27-.6s.47-.23.88-.23h4.11v-19.86h-4.11c-.41,0-.71-.08-.88-.23s-.27-.35-.27-.6.09-.45.27-.6.47-.23.88-.23h9.95c.41,0,.71.08.88.23s.27.35.27.6-.09.45-.27.6-.47.23-.88.23h-4.11Z"/><path class="cls-4" d="M492.94,512.91v9.53h13.26v-4.92c0-.4.08-.68.24-.85s.37-.26.63-.26.47.09.63.26.24.46.24.85v6.58h-19.03c-.41,0-.71-.08-.88-.24s-.27-.36-.27-.59c0-.25.09-.45.27-.6s.47-.23.88-.23h2.32v-19.86h-2.32c-.41,0-.71-.08-.88-.23s-.27-.35-.27-.6.09-.45.27-.6.47-.23.88-.23h18.12v5.73c0,.4-.08.68-.24.85s-.37.26-.63.26-.47-.09-.63-.26-.24-.46-.24-.85v-4.06h-12.36v8.66h6.18v-1.88c0-.4.08-.68.25-.85s.38-.26.64-.26c.25,0,.45.09.62.26s.25.46.25.85v5.43c0,.4-.08.68-.25.85s-.37.26-.62.26c-.26,0-.47-.09-.64-.26s-.25-.46-.25-.85v-1.88h-6.18Z"/><path class="cls-4" d="M532.22,524.11h-2.22l-12.71-20.75v19.09h3.18c.42,0,.73.08.9.23s.27.35.27.6c0,.24-.09.44-.27.59s-.48.24-.9.24h-6.34c-.42,0-.73-.08-.9-.24s-.27-.36-.27-.59c0-.25.09-.45.27-.6s.48-.23.9-.23h1.44v-19.86h-2.32c-.41,0-.71-.08-.88-.23s-.27-.35-.27-.6.09-.45.27-.6.47-.23.88-.23h4.52l12.73,20.79v-19.13h-3.18c-.41,0-.71-.08-.88-.23s-.27-.35-.27-.6.09-.45.26-.6.47-.23.89-.23h6.36c.41,0,.71.08.88.23s.27.35.27.6-.09.45-.27.6-.47.23-.88.23h-1.46v21.52Z"/><g class="cls-7"><image width="155" height="325" transform="translate(33 588.05) scale(.81 .54)" xlink:href="../../../../../../../Downloads/city_wokk-removebg-preview.png"/></g></svg>