<?xml version="1.0" encoding="UTF-8"?><svg id="Lag_1" xmlns="http://www.w3.org/2000/svg" width="1366.75" height="768.75" viewBox="0 0 1366.75 768.75"><defs><style>.cls-1{fill:#7acefa;}.cls-1,.cls-2{stroke:#7acefa;}.cls-1,.cls-2,.cls-3,.cls-4,.cls-5{stroke-miterlimit:10;}.cls-1,.cls-2,.cls-3,.cls-5{stroke-width:9px;}.cls-2,.cls-3,.cls-4{fill:#a3defe;}.cls-3,.cls-4,.cls-5{stroke:#000;}.cls-4{stroke-width:8px;}.cls-6,.cls-5{fill:#000;}.cls-6,.cls-7,.cls-8{stroke-width:0px;}.cls-7{fill:#f7ef87;}.cls-8{fill:#fff;}</style></defs><path class="cls-3" d="M448.24,377.91c-1.69-5.95-1.54-12.28-.96-18.45,1.2-12.72,4.32-25.58,11.44-36.04s18.76-18.23,31.17-18.13c5.94.05,12.21,2.14,15.78,7.03,3.25,4.43,3.51,10.33,4.32,15.82,3.95,26.76,6.7,34.29,15.8,47.74,4.21,6.21,10.47,10.65,15.3,16.36,3.89,4.59,7.2,10.08,8.19,15.99.38,2.25-1.41,4.26-3.62,4.09-21.53-1.68-43.08-3.69-64.64-4.89-8.49-.47-14.21,1.99-19.43-5.43-5.02-7.13-10.92-15.56-13.35-24.08Z"/><path class="cls-4" d="M359.6,410.54c-3.33-8.1-11.32-14.84-20.63-19.87-9.31-5.03-19.97-8.54-30.54-12.01-7.34-2.41-14.67-4.82-22.01-7.23-3.84-1.26-8.02-2.56-12.14-1.93-6.83,1.04-10.29,7.08-9.11,12.1,1.18,5.02,5.62,9.24,9.63,13.41,8.94,9.3,16.37,19.38,22.08,29.95.66,1.21,1.3,2.51,1.02,3.8-.2.91-.85,1.73-1.49,2.53-6.82,8.54-13.65,17.07-20.47,25.61-4.02,5.03-8.12,10.21-9.44,15.95-1.32,5.75.72,12.27,7.08,15.8,6.36,3.53,41.4-8.75,44.58-14.1"/><path class="cls-3" d="M568.08,416.79c12.31,5.66,25.88,14.97,26.92,31.25,0,9.31-5.22,16.29-12.52,22.11-20.87,15.12-40.7,29.09-64.71,33.74-26.09,3.49-52.19,3.49-78.28,2.33-24.01-1.16-48.01-4.65-72.02-12.8-15.66-4.65-31.31-5.82-43.84-18.61-9.39-10.47-17.74-26.76-9.39-40.72,6.26-9.31,17.74-8.14,26.26-13.86l6.1-1.35c-4.91-6.29,175.18-30.71,221.48-2.08"/><path class="cls-4" d="M336.27,489.25c-3.16,10.94-4.21,22.52-3.08,33.87.27,2.73.72,5.58,2.35,7.75,1.84,2.45,4.86,3.6,7.78,4.33,12.2,3.05,25.3.69,36.64-4.87,11.34-5.56,21.05-14.15,29.55-23.67"/><path class="cls-4" d="M478.67,430.03c-7.62-19.72-18.02-38.3-30.77-54.97-9.92-12.96-19.27-26.22-27.84-40.16-2.85-4.63-4.96-8.25-12.66-24.74-2.74-5.88-10.69-19.38-16.43-21.86-4.38-1.11-9-.73-13.43.14-4.3.84-8.62,2.18-12.14,4.86-7.72,5.89-9.91,16.7-10.64,26.56-.82,10.98-.55,22.07,1.22,32.93,5.22,32.04,24.9,62.19,53.66,75.53,7.11,3.3,14.67,5.58,21.5,9.47,5.02,2.86,9.59,6.56,14.81,9.02,8.46,3.98,33.49,9.28,35-5.84.37-3.75-.91-7.44-2.26-10.94Z"/><path class="cls-7" d="M531.27,472.01c-18.82,3.06-91.12,5.1-114.9,6.63-23.77,1.53-98.06-23.6-98.06-23.6,1.98,26.38,55.47,35.33,67.35,38.39,11.89,3.06-2.48,3.06,68.6,8.16,71.08,5.1,98.79-16.32,98.79-16.32,0,0,24.27-17.34,26.74-18.4s-29.71,2.08-48.53,5.14Z"/><ellipse class="cls-8" cx="500.76" cy="450.61" rx="13.1" ry="10.72"/><ellipse class="cls-8" cx="578.05" cy="450.82" rx="13.1" ry="10.72"/><path class="cls-5" d="M526.34,441.69c-5.88-1.83,8.76,4.27,16.38,3.53,8.78-.85,12.45-8.73,10.08-5.37"/><ellipse class="cls-6" cx="570.15" cy="439.02" rx="5.41" ry="8.63"/><ellipse class="cls-6" cx="508.26" cy="439.02" rx="5.41" ry="8.63"/><path class="cls-1" d="M294.97,394.71c-.68-.94,19.86,17.57,19.17,16.95l-19.17-16.95Z"/><path class="cls-1" d="M286.98,472.39c-.53.21,10.77-7.41,10.39-7.16l-10.39,7.16Z"/><path class="cls-2" d="M393.85,331.98c-1.48-4.16,49.31,83.22,47.6,80.28l-47.6-80.28Z"/><path class="cls-2" d="M474.03,369.37c-.43-1.08,14.43,21.61,13.93,20.85l-13.93-20.85Z"/><path class="cls-2" d="M383.36,363.5c-1.03-2.21,29.62,42.79,28.59,41.28l-28.59-41.28Z"/><path class="cls-2" d="M486.14,343.04c-.81-2.53,28.11,51.21,27.14,49.4l-27.14-49.4Z"/></svg>