<?xml version="1.0" encoding="UTF-8"?><svg id="Lag_1" xmlns="http://www.w3.org/2000/svg" width="1366" height="768" viewBox="0 0 1366 768"><rect x="268.29" y="179.03" width="700.8" height="313.68" rx="34.97" ry="34.97" style="fill:#f755ba; stroke:#000; stroke-miterlimit:10;"/><path d="M364.67,325.79c0,8.48-1.09,16.26-3.27,23.36-2.21,7.21-5.15,12.84-8.81,16.86-3.73,4.09-7.72,6.13-11.99,6.13-2.88,0-5.59-.9-8.15-2.71-2.59-1.92-5.39-5.02-8.39-9.29v56.72h-31.99v-137.61h44.35c2.62,0,5.13.44,7.53,1.31,2.4.87,4.65,2.21,6.75,4.01,2.1,1.8,4.01,4.07,5.73,6.81,1.72,2.74,3.2,5.94,4.43,9.6,2.53,7.46,3.79,15.72,3.79,24.8ZM324.06,338.96c.95.48,1.83.72,2.65.72,1.17,0,2.25-.38,3.25-1.13,1-.75,1.85-1.8,2.56-3.16.71-1.35,1.26-3,1.66-4.96.39-1.95.59-4.1.59-6.45,0-4.69-.64-8.36-1.92-11-1.28-2.64-3.06-3.97-5.33-3.97h-3.46v29.94Z" style="fill:#fff; stroke:#000; stroke-miterlimit:10;"/><path d="M404.62,279.26v103.08h28.05v34.54h-60.09v-137.61h32.03Z" style="fill:#fff; stroke:#000; stroke-miterlimit:10;"/><path d="M504.22,279.26l25.11,137.61h-31.99l-4.17-23.27h-23.5l-4.17,23.27h-32.03l25.11-137.61h45.63ZM475.51,361.14h11.85l-5.83-33.64h-.19l-5.83,33.64Z" style="fill:#fff; stroke:#000; stroke-miterlimit:10;"/><path d="M562.27,279.26l11.18,31.2,11.14-31.2h32.41l-27.53,77.55v60.06h-32.03v-60.06l-27.58-77.55h32.41Z" style="fill:#fff; stroke:#000; stroke-miterlimit:10;"/><path d="M679.69,279.26l16.68,45.99h.19v-45.99h32.03v138.7h-24.26l-15.35-42.83h-.19v41.75h-31.99v-137.61h22.89Z" style="fill:#fff; stroke:#000; stroke-miterlimit:10;"/><path d="M776.97,277.09c6.82,0,13.09,3.19,18.81,9.56,5.72,6.37,10.19,14.97,13.41,25.79,3.25,10.76,4.88,22.61,4.88,35.53s-1.63,24.77-4.88,35.71c-3.22,10.94-7.69,19.6-13.41,25.97-5.75,6.31-12.02,9.47-18.81,9.47s-13.05-3.16-18.76-9.47c-5.66-6.25-10.12-14.88-13.41-25.88-3.25-10.94-4.88-22.88-4.88-35.8s1.59-24.41,4.79-35.35c3.19-10.82,7.66-19.45,13.41-25.88,5.75-6.43,12.04-9.65,18.86-9.65ZM769.82,344.28c0,4.33.68,7.82,2.04,10.46,1.39,2.65,3.1,3.97,5.12,3.97s3.73-1.32,5.12-3.97c1.39-2.76,2.08-6.25,2.08-10.46,0-2.1-.18-4.04-.54-5.82-.36-1.77-.86-3.29-1.49-4.55-.63-1.26-1.4-2.25-2.3-2.98-.9-.72-1.87-1.08-2.91-1.08-2.02,0-3.71,1.35-5.07,4.06-1.36,2.65-2.04,6.1-2.04,10.37Z" style="fill:#fff; stroke:#000; stroke-miterlimit:10;"/><path d="M849.66,279.26l8.39,44.91,8.81-44.91h22.22l9.24,44.91,7.91-44.91h31.27l-24.36,137.61h-23.6l-11.42-54.47-10.61,54.47h-23.55l-25.54-137.61h31.23Z" style="fill:#fff; stroke:#000; stroke-miterlimit:10;"/><line x1="556.74" y1="296.53" x2="577.8" y2="335.87" style="fill:none; stroke:#000; stroke-miterlimit:10;"/><ellipse cx="777.4" cy="344.55" rx="24.41" ry="40.84" style="fill:none; stroke:#000; stroke-miterlimit:10;"/><polyline points="596.99 292.12 577.8 331.46 577.8 402.42" style="fill:none; stroke:#000; stroke-miterlimit:10;"/><polyline points="390.76 294.33 390.76 400.21 418.59 400.21" style="fill:none; stroke:#000; stroke-miterlimit:10;"/><polyline points="673.86 396.14 673.86 315.62 712.22 389.71 712.22 298.4" style="fill:none; stroke:#000; stroke-miterlimit:10;"/><polyline points="841.68 295.69 858.23 393.42 879.29 295.69 902.6 393.42 921.41 295.69" style="fill:none; stroke:#000; stroke-miterlimit:10;"/><polyline points="455.49 404.62 483.32 289.92 502.86 380.18 508.15 404.62" style="fill:none; stroke:#000; stroke-miterlimit:10;"/><line x1="460.48" y1="377.62" x2="503.16" y2="377.87" style="fill:none; stroke:#000; stroke-miterlimit:10;"/><path d="M310.08,309.46c0-3.83,1.97-7.25,4.91-8.48,11.57-4.83,24.57.71,30.7,13.29,5.72,11.75,4.3,27.28-3.42,37.75-1.63,2.2-4.02,3.29-6.42,2.88l-17.49-3.01c-4.37-.75-8.27,3.43-8.27,8.86v34.53-85.84Z" style="fill:none; stroke:#000; stroke-miterlimit:10;"/></svg>