<?xml version="1.0" encoding="UTF-8"?><svg id="Lag_1" xmlns="http://www.w3.org/2000/svg" width="1366" height="768" viewBox="0 0 1366 768"><defs><style>.cls-1{fill:#f684ff;stroke-width:.75px;}.cls-1,.cls-2{stroke:#000;stroke-miterlimit:10;}.cls-2{fill:#00a5ff;stroke-width:4px;}</style></defs><ellipse class="cls-1" cx="683" cy="269.17" rx="280.07" ry="116.58"/><path class="cls-2" d="M515.59,247.73c0,3.45-.78,6.62-2.35,9.51-1.59,2.94-3.71,5.23-6.34,6.87-2.68,1.66-5.56,2.5-8.63,2.5-2.07,0-4.02-.37-5.87-1.1-1.86-.78-3.88-2.04-6.04-3.78v23.09h-23.02v-56.03h31.92c1.89,0,3.69.18,5.42.53,1.73.36,3.35.9,4.86,1.63,1.51.73,2.89,1.66,4.13,2.77,1.24,1.11,2.3,2.42,3.19,3.91,1.82,3.04,2.73,6.4,2.73,10.1ZM486.36,253.09c.68.2,1.32.29,1.91.29.84,0,1.62-.15,2.34-.46.72-.31,1.33-.73,1.84-1.29s.91-1.22,1.19-2.02c.28-.79.43-1.67.43-2.62,0-1.91-.46-3.4-1.38-4.48s-2.2-1.62-3.84-1.62h-2.49v12.19Z"/><path class="cls-2" d="M558.93,250.89c0,3.26-.92,5.88-2.76,7.86-1.82,1.98-4.16,2.97-7.03,2.97-3.25,0-6.09-1.35-8.53-4.04-1.09,1.03-1.89,2.4-2.39,4.13-.5,1.73-.75,3.78-.75,6.15v16.85h-21.08v-44.21h21.08v9.4h.14c1.3-3.21,2.92-5.64,4.88-7.29,1.96-1.65,4.17-2.48,6.65-2.48,2.8,0,5.13,1,6.99,3.01,1.86,1.98,2.8,4.53,2.8,7.64Z"/><path class="cls-2" d="M609.51,241.82l-4.47,5.1c1.75,2.2,3.09,4.57,4.01,7.11.92,2.53,1.38,5.4,1.38,8.61,0,6.78-2.09,12.28-6.28,16.49-4.21,4.24-9.62,6.35-16.23,6.35-2.41,0-4.79-.34-7.13-1.03-2.41-.71-4.48-1.66-6.21-2.86l-5.15,5.88-4.5-4.3,5.18-5.95c-1.41-1.57-2.54-3.7-3.38-6.39-.82-2.67-1.23-5.4-1.23-8.19,0-6.71,2.08-12.21,6.24-16.52,4.14-4.28,9.53-6.42,16.17-6.42,2.5,0,4.82.32,6.96.95,2.14.64,3.92,1.42,5.35,2.35l4.88-5.54,4.4,4.37ZM587.92,267.23c1.43,0,2.57-.45,3.41-1.36.84-.91,1.26-2.13,1.26-3.67s-.43-2.77-1.28-3.69-2-1.38-3.43-1.38c-.68,0-1.3.12-1.86.37-.56.25-1.04.59-1.43,1.05-.4.45-.71.99-.94,1.62-.23.62-.34,1.3-.34,2.04,0,1.49.43,2.71,1.28,3.64s1.96,1.39,3.33,1.39Z"/><path class="cls-2" d="M634.03,240.61l4.57,11.27,4.47-11.27h21.08l-17.8,44.21h-15.58l-17.8-44.17,21.08-.04Z"/><path class="cls-2" d="M691.33,240.61c1.3.81,2.89,1.43,4.77,1.87,1.89.44,3.9.66,6.04.66,2,0,3.89-.21,5.66-.64,1.77-.43,3.31-1.06,4.6-1.89v44.21h-21.08v-44.21ZM712.26,234.3c0,1.76-.59,3.28-1.77,4.55-1.16,1.27-2.55,1.91-4.16,1.91s-3.05-.64-4.23-1.91-1.77-2.79-1.77-4.55.59-3.23,1.77-4.48c1.18-1.27,2.59-1.91,4.23-1.91s3,.62,4.16,1.87c1.18,1.2,1.77,2.71,1.77,4.52Z"/><path class="cls-2" d="M765.77,275.53c0,7.39-1.79,12.86-5.35,16.39-3.57,3.54-9.13,5.31-16.68,5.31-4.8,0-9.26-.54-13.39-1.63-4.13-1.09-7.76-2.67-10.9-4.75v-20.08c5.05,5.26,10.64,7.89,16.78,7.89,2.75,0,4.86-.48,6.33-1.45,1.47-.97,2.2-2.33,2.2-4.09,0-.44-.03-.87-.1-1.29-.98.69-2.23,1.25-3.77,1.71-1.54.45-3.17.68-4.89.68-5.14,0-9.21-1.5-12.21-4.52-2.98-3.06-4.47-7.13-4.47-12.23,0-3.13.62-5.97,1.88-8.52,1.25-2.59,2.97-4.52,5.15-5.76,2.18-1.25,4.59-1.98,7.23-2.2,1.34-.12,2.82-.21,4.45-.26,1.63-.05,3.4-.08,5.34-.11h22.41v34.92ZM741.73,263.6c1.23,0,2.21-.32,2.93-.95v-9.55h-.58c-2.27,0-4,.43-5.18,1.29-1.18.86-1.77,2.28-1.77,4.26,0,1.54.42,2.75,1.26,3.64.84.88,1.96,1.32,3.34,1.32Z"/><path class="cls-2" d="M793.5,239.69c4.23,0,8.04.99,11.42,2.97,3.41,1.96,6.05,4.82,7.91,8.59,1.89,3.79,2.83,8.09,2.83,12.89v1.43h-21.55c.36,1.1.88,2.1,1.53,2.99s1.43,1.65,2.32,2.28,1.86,1.1,2.92,1.43c1.06.33,2.19.5,3.39.5,1.11,0,2.22-.11,3.31-.33,1.09-.22,2.12-.53,3.09-.94.97-.4,1.87-.91,2.71-1.51.84-.6,1.59-1.28,2.25-2.04v7.75c-2.43,3.4-5.3,5.88-8.59,7.43-3.3,1.55-7.07,2.33-11.32,2.33-2.36.02-4.6-.21-6.7-.72-2.1-.5-4.04-1.23-5.81-2.19-1.77-.95-3.36-2.12-4.76-3.51s-2.58-2.94-3.55-4.66c-.97-1.73-1.7-3.62-2.2-5.67-.5-2.06-.74-4.23-.72-6.54,0-4.33.9-8.2,2.69-11.6,1.82-3.45,4.35-6.12,7.61-8,3.3-1.93,7.04-2.9,11.22-2.9ZM792.85,257.83h9.92c-.07-2.15-.56-3.86-1.48-5.12-.92-1.26-2.14-1.89-3.67-1.89-1.36,0-2.5.62-3.41,1.87-.91,1.2-1.36,2.75-1.36,4.66v.48Z"/><path class="cls-2" d="M870.75,284.82h-19.92v-26c0-1.62-.31-2.9-.92-3.85-.61-.96-1.6-1.43-2.97-1.43-.57,0-1.21.13-1.91.4-.71.27-1.33.61-1.88,1.03v29.85h-21.08v-44.21h21.08v5.54c1.96-2.13,3.94-3.65,5.95-4.55,2.01-.91,4.27-1.36,6.77-1.36,4.93,0,8.64,1.48,11.12,4.44,2.5,2.96,3.75,7.06,3.75,12.3v27.83Z"/><path class="cls-2" d="M910.41,243.92c0,4.33-1.17,8.4-3.51,12.19-2.3,3.79-5.81,7.77-10.54,11.93,1.86.71,3.3,1.82,4.3,3.32,1,1.51,1.5,3.26,1.5,5.27,0,2.57-.82,4.74-2.46,6.5-1.66,1.74-3.66,2.61-6,2.61s-4.42-.87-6.1-2.61c-1.66-1.71-2.49-3.83-2.49-6.35,0-1.66.38-3.24,1.14-4.74s1.82-3.08,3.19-4.77c1.36-1.69,2.43-3.33,3.19-4.92.76-1.59,1.14-3.3,1.14-5.14,0-2.99-.83-5.37-2.49-7.16-1.68-1.84-3.85-2.75-6.51-2.75-1.34,0-2.81.27-4.42.81-1.6.54-3.51,1.42-5.71,2.64,1.32-6.27,3.91-11.64,7.78-16.12,3.84-4.48,8.26-6.72,13.27-6.72,4.14,0,7.63,1.54,10.47,4.63,2.84,3.06,4.26,6.85,4.26,11.38Z"/></svg>