<?xml version="1.0" encoding="UTF-8"?><svg id="Lag_1" xmlns="http://www.w3.org/2000/svg" width="1366" height="768" viewBox="0 0 1366 768"><defs><style>.cls-1{fill:#f684ff;}.cls-1,.cls-2,.cls-3{stroke:#000;stroke-miterlimit:10;}.cls-1,.cls-3{stroke-width:.75px;}.cls-2{fill:#00a5ff;stroke-width:4px;}.cls-3{fill:#54d6ff;}</style></defs><rect class="cls-3" y="3.26" width="1366" height="768"/><ellipse class="cls-1" cx="627.03" cy="255.44" rx="504.1" ry="228.76"/><path class="cls-2" d="M401.91,127.03v39.7h-17.73v49.92h-35.25v-49.92h-17.73v-39.7h70.71Z"/><path class="cls-2" d="M447.07,127.03v89.63h-35.2v-89.63h35.2Z"/><path class="cls-2" d="M497.91,127.03v67.13h30.87v22.5h-66.12v-89.63h35.25Z"/><path class="cls-2" d="M572.48,127.03v67.13h30.87v22.5h-66.12v-89.63h35.25Z"/><path class="cls-2" d="M640.22,127.03l12.31,20.32,12.25-20.32h35.67l-30.3,50.51v39.12h-35.25v-39.12l-30.35-50.51h35.67Z"/><path class="cls-2" d="M744.1,127.03v29.95c2.85-.23,5.41-1.04,7.69-2.41,2.28-1.37,4.21-3.32,5.79-5.84,1.58-2.53,2.8-5.6,3.65-9.22.85-3.62,1.28-7.78,1.28-12.48h35.88c0,10.92-1.27,19.91-3.81,26.96-2.5,7.09-6.47,12.98-11.89,17.68,5.28,4.58,9.45,10.54,12.49,17.88s4.86,16.38,5.45,27.11h-38.01c-.87-21.34-7.04-32.24-18.51-32.71v32.71h-35.2v-89.63h35.2Z"/><path class="cls-2" d="M845.36,127.03v29.95c2.85-.23,5.41-1.04,7.69-2.41,2.28-1.37,4.21-3.32,5.79-5.84,1.58-2.53,2.8-5.6,3.65-9.22.85-3.62,1.28-7.78,1.28-12.48h35.88c0,10.92-1.27,19.91-3.81,26.96-2.5,7.09-6.47,12.98-11.89,17.68,5.28,4.58,9.45,10.54,12.49,17.88s4.86,16.38,5.45,27.11h-38.01c-.87-21.34-7.04-32.24-18.51-32.71v32.71h-35.2v-89.63h35.2Z"/><path class="cls-2" d="M977.29,127.03v22.5h-30.87v11.1h21.48v22.49h-21.48v11.04h30.87v22.5h-66.07v-89.63h66.07Z"/><path class="cls-2" d="M376.98,271.37c8.48,0,16.04,1.88,22.68,5.64,6.64,3.76,11.79,9.22,15.44,16.39,3.65,7.13,5.48,14.78,5.48,22.96s-1.88,16.05-5.63,23.14c-3.69,7.01-8.92,12.35-15.7,16.03-6.75,3.64-14.43,5.46-23.05,5.46h-39v-89.63h39.79ZM372.39,326.7h.94c4.24,0,7.3-.83,9.18-2.5,1.88-1.66,2.82-4.4,2.82-8.19,0-3.33-.9-5.88-2.69-7.67-1.79-1.78-4.53-2.67-8.21-2.67h-2.03v21.03Z"/><path class="cls-2" d="M509.54,271.37v41.47c0,5.29-.38,10.12-1.15,14.51-.76,4.39-1.92,8.35-3.47,11.89-1.55,3.54-3.49,6.72-5.84,9.51-2.35,2.8-5.12,5.26-8.32,7.37-6.36,4.23-13.32,6.34-20.86,6.34-7.06,0-13.78-1.96-20.18-5.87-6.36-3.92-11.19-9.32-14.5-16.21-3.23-6.85-4.85-16.58-4.85-29.19v-39.82h35.25v42.23c0,3.6.29,6.11.89,7.52.63,1.33,1.72,2,3.29,2,.94,0,1.7-.23,2.27-.7.57-.47,1.03-1.21,1.36-2.23.33-1.02.56-2.33.68-3.94.12-1.6.18-3.54.18-5.81v-39.06h35.25Z"/><path class="cls-2" d="M587.81,271.37l8.87,29.72h.21l8.86-29.72h35.15l-27.01,89.63h-34.16l-27.06-89.63h35.15Z"/><path class="cls-2" d="M719.85,271.37l27.64,89.63h-35.2l-4.59-15.15h-25.86l-4.59,15.15h-35.25l27.64-89.63h50.22ZM688.25,324.7h13.04l-6.41-21.91h-.21l-6.41,21.91Z"/><path class="cls-2" d="M780.65,271.37l18.36,29.95h.21v-29.95h35.25v90.33h-26.7l-16.9-27.9h-.21v27.19h-35.2v-89.63h25.19Z"/><path class="cls-2" d="M889.84,271.37c8.48,0,16.04,1.88,22.68,5.64,6.64,3.76,11.79,9.22,15.44,16.39,3.65,7.13,5.48,14.78,5.48,22.96s-1.88,16.05-5.63,23.14c-3.69,7.01-8.92,12.35-15.7,16.03-6.75,3.64-14.43,5.46-23.05,5.46h-39v-89.63h39.79ZM885.26,326.7h.94c4.24,0,7.3-.83,9.18-2.5,1.88-1.66,2.82-4.4,2.82-8.19,0-3.33-.9-5.88-2.69-7.67-1.79-1.78-4.53-2.67-8.21-2.67h-2.03v21.03Z"/><path class="cls-2" d="M1009.26,271.37v39.7h-17.73v49.92h-35.25v-49.92h-17.73v-39.7h70.71Z"/><path class="cls-2" d="M1050.4,293.69c0,5.72-1.03,11.86-3.08,18.44-2.02,6.42-5.51,14.14-10.48,23.14,2.61,1.1,4.66,2.81,6.15,5.14,1.49,2.33,2.24,5.02,2.24,8.08,0,3.92-1.23,7.22-3.7,9.93-2.47,2.7-5.35,4.05-8.66,4.05s-6.26-1.35-8.76-4.05c-2.5-2.74-3.75-6.05-3.75-9.93,0-3.05.74-5.75,2.22-8.08,1.48-2.33,3.52-4.04,6.13-5.14-4.62-8.73-8.02-16.44-10.2-23.11-2.17-6.68-3.26-12.62-3.26-17.83,0-6.97,1.67-12.78,5.01-17.44,3.34-4.62,7.58-6.93,12.72-6.93s9.14,2.25,12.41,6.75c3.34,4.46,5.01,10.12,5.01,16.97Z"/></svg>